<svg version="1.0" xmlns="http://www.w3.org/2000/svg" width="73px" height="73px" viewBox="0 0 512.000000 512.000000" preserveAspectRatio="xMidYMid meet">
	<g transform="translate(0.000000,512.000000) scale(0.100000,-0.100000)" fill="#000000" stroke="none">
		<path d="M2434 5105 c-159 -34 -320 -161 -389 -306 -61 -130 -77 -245 -50 -374 28 -132 121 -277 225 -350 17 -12 21 -19 12 -22 -8 -3 -47 -27 -87 -55 -134 -89 -237 -225 -291 -383 -25 -72 -28 -96 -32 -252 l-4 -172 26 -25 25 -26 691 0 691 0 25 26 26 25 -4 172 c-4 156 -7 180 -32 252 -15 44 -46 112 -68 150 -51 86 -173 208 -253 255 l-61 34 76 76 c186 185 228 430 115 669 -47 98 -160 212 -257 259 -120 58 -256 75 -384 47z m46 -208 c0 -106 -57 -205 -143 -246 -23 -11 -72 -23 -109 -27 -64 -6 -68 -5 -68 13 0 41 70 161 121 207 54 48 140 95 177 96 19 0 22 -5 22 -43z m255 18 c82 -39 149 -105 190 -187 19 -39 35 -80 35 -91 0 -18 -4 -19 -67 -13 -38 4 -87 16 -110 27 -86 41 -143 140 -143 246 0 53 15 55 95 18z m-125 -339 c77 -76 177 -115 293 -116 66 0 69 -7 37 -79 -52 -113 -144 -196 -259 -232 -200 -62 -412 36 -501 232 -32 72 -29 79 38 79 116 0 221 42 297 119 21 23 41 41 44 41 3 0 26 -20 51 -44z m94 -632 c249 -64 417 -275 433 -544 l6 -100 -583 0 -583 0 6 100 c16 265 175 469 422 541 77 23 218 24 299 3z" />
		<path d="M1690 4791 c-304 -121 -557 -283 -783 -500 -217 -209 -360 -404 -492 -671 -104 -209 -176 -432 -222 -685 -26 -146 -26 -594 0 -751 11 -61 22 -117 27 -124 6 -10 23 -9 84 5 75 16 77 17 72 43 -31 150 -40 243 -40 447 -1 248 12 351 69 571 161 618 578 1135 1151 1424 64 32 150 71 192 86 43 15 81 31 86 35 7 6 -40 161 -48 158 0 0 -44 -17 -96 -38z" />
		<path d="M3311 4775 c-40 -107 -45 -98 64 -140 661 -256 1170 -833 1344 -1525 53 -208 66 -322 65 -560 -1 -198 -9 -294 -40 -441 -5 -26 -3 -27 72 -44 60 -13 78 -14 84 -4 5 6 16 62 27 123 14 89 18 164 18 381 -1 301 -12 390 -79 635 -202 737 -749 1334 -1472 1606 l-63 23 -20 -54z" />
		<path d="M2089 2944 l-24 -26 -3 -304 -3 -304 -258 0 c-246 0 -260 -1 -285 -21 l-26 -20 0 -368 0 -368 23 -21 c22 -21 31 -22 244 -22 l222 0 3 -146 c3 -139 4 -147 27 -165 13 -11 39 -19 59 -19 33 0 49 13 202 165 l166 165 245 0 c309 0 287 -14 291 185 l3 140 340 2 c238 2 347 6 363 15 12 6 27 28 33 47 6 24 9 210 7 538 l-3 501 -24 26 -24 26 -777 0 -777 0 -24 -26z m1461 -549 l0 -415 -290 0 -290 0 0 85 0 85 125 0 125 0 0 80 0 80 -495 0 -495 0 0 250 0 250 660 0 660 0 0 -415z m-740 -495 l0 -250 -226 0 -225 0 -105 -102 -104 -101 0 71 c0 61 -3 74 -26 101 l-26 31 -224 0 -224 0 0 250 0 250 580 0 580 0 0 -250z" />
		<path d="M2390 2560 l0 -80 500 0 500 0 0 80 0 80 -500 0 -500 0 0 -80z" />
		<path d="M1820 1900 l0 -80 410 0 410 0 0 80 0 80 -410 0 -410 0 0 -80z" />
		<path d="M606 1964 c-102 -25 -184 -72 -267 -154 -118 -117 -169 -238 -169 -405 0 -170 48 -283 173 -410 43 -44 74 -81 69 -83 -6 -2 -38 -21 -71 -42 -151 -98 -254 -235 -311 -415 -17 -55 -23 -103 -27 -222 -6 -167 1 -202 43 -222 18 -8 221 -11 704 -11 l679 0 28 24 28 24 -1 154 c-1 126 -5 167 -23 232 -52 189 -183 362 -341 453 -25 14 -46 27 -48 29 -2 1 30 35 70 76 186 185 229 432 116 667 -114 239 -391 368 -652 305z m33 -323 c-23 -56 -82 -115 -135 -137 -30 -13 -164 -20 -164 -9 0 2 9 29 21 60 40 106 133 197 242 235 l52 19 3 -59 c2 -44 -3 -72 -19 -109z m307 121 c77 -40 155 -135 189 -231 l15 -43 -78 3 c-99 5 -161 39 -207 113 -25 42 -31 62 -34 128 l-3 78 39 -14 c22 -8 58 -23 79 -34z m-84 -379 c64 -39 152 -63 230 -63 l57 0 -13 -38 c-55 -156 -169 -255 -325 -284 -165 -31 -350 59 -428 209 -17 32 -33 70 -37 86 l-6 27 57 0 c118 1 222 42 298 120 l47 48 33 -37 c18 -20 57 -50 87 -68z m33 -580 c95 -23 173 -70 255 -153 114 -115 170 -247 170 -407 l0 -73 -575 0 -575 0 0 83 c0 155 56 290 166 401 150 149 346 202 559 149z" />
		<path d="M4242 1966 c-162 -40 -309 -158 -380 -307 -113 -235 -70 -482 116 -667 40 -41 72 -75 70 -76 -2 -2 -23 -15 -48 -29 -158 -91 -289 -264 -341 -453 -18 -65 -22 -106 -23 -232 l-1 -154 28 -24 28 -24 679 0 c476 0 686 3 703 11 38 17 47 51 47 179 0 248 -63 420 -210 571 -55 56 -165 139 -202 151 -5 2 26 39 69 83 125 127 173 240 173 410 0 167 -51 287 -169 405 -84 84 -165 129 -272 155 -77 18 -194 18 -267 1z m39 -307 c-31 -103 -126 -169 -243 -169 l-68 0 20 52 c44 116 123 197 239 244 l56 23 3 -57 c2 -31 -1 -73 -7 -93z m287 109 c89 -42 175 -149 207 -255 6 -22 4 -23 -60 -23 -76 0 -117 14 -170 61 -54 48 -85 119 -85 196 l0 62 31 -9 c17 -5 52 -19 77 -32z m-43 -402 c64 -31 124 -45 198 -46 l57 0 -6 -27 c-13 -55 -67 -143 -116 -189 -57 -53 -133 -91 -218 -106 -194 -37 -404 97 -460 292 l-9 30 58 0 c117 0 247 54 314 131 l32 36 50 -48 c28 -26 73 -59 100 -73z m5 -563 c191 -52 355 -217 405 -409 8 -32 15 -96 15 -141 l0 -83 -575 0 -575 0 0 73 c0 91 22 183 63 266 40 84 158 204 242 248 131 68 283 85 425 46z" />
		<path d="M1651 432 c-17 -41 -30 -76 -29 -77 2 -2 46 -19 98 -38 283 -105 525 -147 840 -147 315 0 557 42 840 147 52 19 96 36 98 38 1 1 -12 36 -30 78 -30 73 -32 75 -57 65 -124 -48 -173 -64 -286 -93 -207 -54 -331 -69 -565 -69 -294 0 -514 38 -781 137 l-96 35 -32 -76z" />
	</g>
</svg>
