<svg version="1.0" xmlns="http://www.w3.org/2000/svg" width="73px" height="73px" viewBox="0 0 512.000000 512.000000" preserveAspectRatio="xMidYMid meet">
	<g transform="translate(0.000000,512.000000) scale(0.100000,-0.100000)" fill="#000000" stroke="none">
		<path d="M2435 4759 c-196 -28 -392 -129 -542 -279 -89 -89 -156 -188 -204 -300 -62 -145 -74 -212 -73 -400 1 -149 3 -174 27 -253 15 -48 41 -115 57 -147 l30 -59 -65 -33 c-93 -46 -224 -147 -299 -231 -127 -141 -718 -873 -763 -945 -359 -573 -169 -1318 415 -1630 150 -80 359 -132 527 -132 162 0 361 48 510 123 196 98 272 170 578 545 126 155 231 281 233 280 1 -2 59 -145 129 -318 70 -173 139 -335 153 -360 61 -105 177 -199 300 -242 66 -23 73 -23 502 -23 426 0 436 0 482 22 169 78 247 277 173 442 -30 65 -79 116 -231 240 l-79 65 -237 590 c-131 325 -240 598 -243 607 -5 13 5 19 47 29 151 35 311 158 376 290 105 214 65 459 -104 625 -124 123 -221 155 -472 155 l-174 0 7 23 c57 175 76 338 56 478 -80 542 -577 916 -1116 838z m350 -175 c309 -83 546 -342 601 -655 26 -150 5 -326 -56 -461 l-21 -48 -443 0 c-434 0 -443 0 -461 -20 -26 -29 -25 -85 3 -113 l23 -22 712 -5 712 -5 67 -33 c42 -21 83 -51 111 -82 178 -198 120 -484 -122 -603 l-66 -32 -510 -6 c-451 -5 -516 -8 -565 -23 -162 -53 -200 -88 -495 -452 -231 -287 -255 -320 -255 -354 0 -53 44 -87 96 -74 18 5 100 100 268 308 134 166 261 317 282 335 55 49 135 82 222 92 43 5 228 8 412 7 l335 -3 260 -646 c143 -356 269 -657 280 -669 11 -12 74 -66 140 -120 66 -54 128 -113 138 -130 19 -31 24 -100 12 -142 -13 -43 -54 -86 -98 -103 -38 -14 -91 -16 -442 -13 l-400 3 -67 32 c-74 35 -146 100 -177 160 -11 22 -70 165 -131 319 -191 477 -197 490 -231 505 -25 10 -36 9 -59 -2 -16 -8 -128 -135 -261 -299 -127 -157 -261 -321 -298 -364 -361 -434 -1004 -475 -1420 -90 -268 248 -369 661 -250 1018 36 107 94 221 151 296 110 146 660 814 722 878 83 86 202 169 307 213 132 56 140 77 74 191 -25 43 -60 120 -77 171 -31 87 -32 100 -33 242 0 176 12 234 79 370 115 232 322 389 581 441 87 17 266 11 350 -12z" />
		<path d="M372 4680 c-12 -11 -24 -31 -27 -43 -3 -12 -4 -304 -3 -648 3 -600 4 -628 22 -648 27 -30 85 -28 114 2 l22 23 0 643 0 642 -25 24 c-30 31 -73 32 -103 5z" />
		<path d="M779 4671 l-29 -29 0 -449 c0 -484 1 -486 54 -511 32 -16 80 -2 96 29 6 10 10 203 10 479 l0 461 -25 24 c-33 33 -70 32 -106 -4z" />
		<path d="M1193 4676 l-28 -24 0 -287 0 -287 28 -24 c34 -29 66 -31 101 -3 l26 20 0 294 0 294 -26 20 c-35 28 -67 26 -101 -3z" />
		<path d="M3826 4679 l-26 -20 0 -294 0 -294 26 -20 c35 -28 67 -26 101 3 l28 24 0 287 0 287 -28 24 c-34 29 -66 31 -101 3z" />
		<path d="M4235 4675 l-25 -24 0 -461 c0 -276 4 -469 10 -479 16 -31 64 -45 96 -29 53 25 54 27 54 511 l0 449 -29 29 c-36 36 -73 37 -106 4z" />
		<path d="M4645 4675 l-25 -24 0 -644 0 -644 23 -21 c31 -29 87 -29 113 -1 18 20 19 48 22 648 1 344 0 636 -3 648 -15 60 -87 82 -130 38z" />
	</g>
</svg>
