<svg version="1.0" xmlns="http://www.w3.org/2000/svg" width="73px" height="73px" viewBox="0 0 512.000000 512.000000" preserveAspectRatio="xMidYMid meet">
	<g transform="translate(0.000000,512.000000) scale(0.100000,-0.100000)" fill="#000000" stroke="none">
		<path d="M2084 4901 c-54 -14 -103 -51 -132 -99 l-27 -47 -5 -655 -5 -655 -30 -54 c-61 -111 -207 -226 -398 -316 -130 -61 -127 -61 -162 -12 -42 57 -107 104 -170 122 -45 13 -113 15 -432 13 l-378 -3 -57 -28 c-62 -30 -115 -83 -150 -149 l-23 -43 0 -1215 0 -1215 23 -43 c35 -66 88 -119 150 -149 l57 -28 400 0 c396 0 400 0 450 23 27 13 60 33 73 44 l22 22 48 -46 c64 -63 134 -105 217 -131 l70 -22 1310 0 1310 0 71 26 c165 60 294 191 339 344 8 28 91 464 185 970 184 993 187 1019 154 1168 -21 94 -90 236 -153 313 -91 112 -225 198 -381 245 -74 23 -83 23 -722 27 l-648 3 0 470 c0 534 -2 553 -75 704 -96 198 -260 334 -475 395 -60 17 -110 22 -250 25 -96 3 -189 1 -206 -4z m441 -239 c121 -45 230 -140 290 -253 63 -121 65 -136 65 -712 0 -559 0 -559 53 -589 17 -10 182 -14 737 -18 711 -5 715 -5 775 -27 75 -29 154 -81 210 -140 83 -86 144 -238 145 -358 0 -27 -77 -466 -170 -975 -192 -1036 -186 -1015 -281 -1090 -96 -75 6 -71 -1440 -68 l-1294 3 -50 27 c-60 32 -114 87 -146 148 l-24 45 -3 1075 -2 1075 52 19 c246 86 506 269 608 428 82 125 80 109 80 815 l0 625 168 -4 c142 -3 176 -7 227 -26z m-1421 -1686 c71 -30 66 67 66 -1216 0 -1283 5 -1186 -66 -1216 -49 -21 -669 -20 -719 0 -69 29 -65 -49 -65 1216 0 1261 -4 1186 63 1215 47 21 673 21 721 1z" />
		<path d="M694 2759 c-34 -17 -57 -66 -51 -106 12 -74 89 -113 152 -78 93 49 61 196 -42 194 -21 0 -47 -5 -59 -10z" />
	</g>
</svg>
